<svg width="24" height="29" viewBox="0 0 24 29" fill="none" xmlns="http://www.w3.org/2000/svg">
<g id="&#240;&#159;&#166;&#134; icon &#34;calendar&#34;">
<g id="Group">
<path id="Vector" d="M18.2948 3.18727V1.03483C18.2948 0.469123 17.8425 0 17.297 0C16.7515 0 16.2991 0.469123 16.2991 1.03483V3.10449H7.65092V1.03483C7.65092 0.469123 7.19855 0 6.65305 0C6.10755 0 5.65518 0.469123 5.65518 1.03483V3.18727C2.06284 3.53222 0.319897 5.75365 0.0537984 9.05131C0.0271885 9.45144 0.346507 9.78259 0.719046 9.78259H23.231C23.6168 9.78259 23.9361 9.43764 23.8962 9.05131C23.6301 5.75365 21.8872 3.53222 18.2948 3.18727Z" fill="#292D32"/>
<path id="Vector_2" d="M22.6184 11.8521H1.33049C0.598723 11.8521 0 12.4729 0 13.2318V21.7312C0 25.8705 1.99574 28.63 6.65247 28.63H17.2964C21.9532 28.63 23.9489 25.8705 23.9489 21.7312V13.2318C23.9489 12.4729 23.3502 11.8521 22.6184 11.8521ZM8.26237 23.4007C8.19585 23.4559 8.12932 23.5249 8.0628 23.5663C7.98297 23.6215 7.90314 23.6628 7.82331 23.6904C7.74348 23.7318 7.66365 23.7594 7.58382 23.7732C7.49069 23.787 7.41086 23.8008 7.31772 23.8008C7.14476 23.8008 6.97179 23.7594 6.81213 23.6904C6.63917 23.6215 6.50612 23.5249 6.37307 23.4007C6.13358 23.1385 5.98723 22.7798 5.98723 22.4211C5.98723 22.0623 6.13358 21.7036 6.37307 21.4414C6.50612 21.3172 6.63917 21.2206 6.81213 21.1517C7.05162 21.0413 7.31772 21.0137 7.58382 21.0689C7.66365 21.0827 7.74348 21.1103 7.82331 21.1517C7.90314 21.1793 7.98297 21.2207 8.0628 21.2758C8.12932 21.331 8.19585 21.3862 8.26237 21.4414C8.50186 21.7036 8.64822 22.0623 8.64822 22.4211C8.64822 22.7798 8.50186 23.1385 8.26237 23.4007ZM8.26237 18.5715C8.00958 18.8198 7.66365 18.9716 7.31772 18.9716C6.97179 18.9716 6.62586 18.8198 6.37307 18.5715C6.13358 18.3093 5.98723 17.9506 5.98723 17.5918C5.98723 17.2331 6.13358 16.8744 6.37307 16.6122C6.74561 16.2259 7.33103 16.1017 7.82331 16.3225C7.99627 16.3914 8.14263 16.488 8.26237 16.6122C8.50186 16.8744 8.64822 17.2331 8.64822 17.5918C8.64822 17.9506 8.50186 18.3093 8.26237 18.5715ZM12.9191 23.4007C12.6663 23.6491 12.3204 23.8008 11.9745 23.8008C11.6285 23.8008 11.2826 23.6491 11.0298 23.4007C10.7903 23.1385 10.644 22.7798 10.644 22.4211C10.644 22.0623 10.7903 21.7036 11.0298 21.4414C11.5221 20.9309 12.4268 20.9309 12.9191 21.4414C13.1586 21.7036 13.3049 22.0623 13.3049 22.4211C13.3049 22.7798 13.1586 23.1385 12.9191 23.4007ZM12.9191 18.5715C12.8526 18.6267 12.7861 18.6819 12.7195 18.7371C12.6397 18.7923 12.5599 18.8336 12.48 18.8612C12.4002 18.9026 12.3204 18.9302 12.2406 18.944C12.1474 18.9578 12.0676 18.9716 11.9745 18.9716C11.6285 18.9716 11.2826 18.8198 11.0298 18.5715C10.7903 18.3093 10.644 17.9506 10.644 17.5918C10.644 17.2331 10.7903 16.8744 11.0298 16.6122C11.1495 16.488 11.2959 16.3914 11.4689 16.3225C11.9611 16.1017 12.5466 16.2259 12.9191 16.6122C13.1586 16.8744 13.3049 17.2331 13.3049 17.5918C13.3049 17.9506 13.1586 18.3093 12.9191 18.5715ZM17.5758 23.4007C17.323 23.6491 16.9771 23.8008 16.6312 23.8008C16.2853 23.8008 15.9393 23.6491 15.6865 23.4007C15.447 23.1385 15.3007 22.7798 15.3007 22.4211C15.3007 22.0623 15.447 21.7036 15.6865 21.4414C16.1788 20.9309 17.0836 20.9309 17.5758 21.4414C17.8153 21.7036 17.9617 22.0623 17.9617 22.4211C17.9617 22.7798 17.8153 23.1385 17.5758 23.4007ZM17.5758 18.5715C17.5093 18.6267 17.4428 18.6819 17.3763 18.7371C17.2964 18.7923 17.2166 18.8336 17.1368 18.8612C17.0569 18.9026 16.9771 18.9302 16.8973 18.944C16.8041 18.9578 16.711 18.9716 16.6312 18.9716C16.2853 18.9716 15.9393 18.8198 15.6865 18.5715C15.447 18.3093 15.3007 17.9506 15.3007 17.5918C15.3007 17.2331 15.447 16.8744 15.6865 16.6122C15.8196 16.488 15.9526 16.3914 16.1256 16.3225C16.3651 16.2121 16.6312 16.1845 16.8973 16.2397C16.9771 16.2535 17.0569 16.2811 17.1368 16.3225C17.2166 16.3501 17.2964 16.3914 17.3763 16.4466L17.5758 16.6122C17.8153 16.8744 17.9617 17.2331 17.9617 17.5918C17.9617 17.9506 17.8153 18.3093 17.5758 18.5715Z" fill="#292D32"/>
</g>
</g>
</svg>
