<svg width="27" height="29" viewBox="0 0 27 29" fill="none" xmlns="http://www.w3.org/2000/svg">
<path d="M18.563 3.04056V0.987196C18.563 0.447529 18.104 0 17.5505 0C16.997 0 16.538 0.447529 16.538 0.987196V2.96159H7.76291V0.987196C7.76291 0.447529 7.3039 0 6.75039 0C6.19689 0 5.73788 0.447529 5.73788 0.987196V3.04056C2.09283 3.36963 0.324313 5.48881 0.0543094 8.63468C0.0273091 9.01639 0.351313 9.3323 0.729318 9.3323H23.5716C23.9631 9.3323 24.2871 9.00323 24.2466 8.63468C23.9766 5.48881 22.208 3.36963 18.563 3.04056Z" fill="#292D32"/>
<path d="M21.5998 18.0984C18.6162 18.0984 16.1997 20.4545 16.1997 23.3634C16.1997 24.3506 16.4832 25.2852 16.9827 26.0749C17.9142 27.6018 19.6288 28.6285 21.5998 28.6285C23.5708 28.6285 25.2853 27.6018 26.2168 26.0749C26.7163 25.2852 26.9998 24.3506 26.9998 23.3634C26.9998 20.4545 24.5833 18.0984 21.5998 18.0984ZM24.3943 22.7974L21.5188 25.3905C21.3298 25.5616 21.0733 25.6537 20.8303 25.6537C20.5738 25.6537 20.3173 25.5616 20.1148 25.3642L18.7782 24.0611C18.3867 23.6793 18.3867 23.0475 18.7782 22.6658C19.1697 22.2841 19.8178 22.2841 20.2093 22.6658L20.8573 23.2976L23.0173 21.3496C23.4223 20.981 24.0703 21.0073 24.4483 21.4022C24.8263 21.7971 24.7993 22.4157 24.3943 22.7974Z" fill="#292D32"/>
<path d="M22.9503 11.3064H1.35002C0.607508 11.3064 0 11.8987 0 12.6226V20.7308C0 24.6796 2.02503 27.3121 6.75008 27.3121H13.4057C14.3372 27.3121 14.9852 26.4302 14.6882 25.5746C14.4182 24.8112 14.1887 23.9688 14.1887 23.3633C14.1887 19.375 17.5232 16.1239 21.6138 16.1239C22.0053 16.1239 22.3968 16.1502 22.7748 16.216C23.5848 16.3345 24.3138 15.7158 24.3138 14.9261V12.6358C24.3003 11.8987 23.6928 11.3064 22.9503 11.3064ZM8.38361 22.3235C8.1271 22.5604 7.7761 22.7052 7.42509 22.7052C7.07409 22.7052 6.72308 22.5604 6.46658 22.3235C6.22358 22.0734 6.07508 21.7311 6.07508 21.3889C6.07508 21.0467 6.22358 20.7045 6.46658 20.4544C6.60158 20.3359 6.73658 20.2438 6.91209 20.1779C7.41159 19.9673 8.0056 20.0858 8.38361 20.4544C8.62661 20.7045 8.77511 21.0467 8.77511 21.3889C8.77511 21.7311 8.62661 22.0734 8.38361 22.3235ZM8.38361 17.7165C8.3161 17.7692 8.2486 17.8218 8.1811 17.8745C8.1001 17.9271 8.0191 17.9666 7.9381 17.993C7.8571 18.0324 7.7761 18.0588 7.6951 18.0719C7.6006 18.0851 7.50609 18.0983 7.42509 18.0983C7.07409 18.0983 6.72308 17.9535 6.46658 17.7165C6.22358 17.4664 6.07508 17.1242 6.07508 16.782C6.07508 16.4398 6.22358 16.0975 6.46658 15.8474C6.77709 15.5447 7.24959 15.3999 7.6951 15.4921C7.7761 15.5052 7.8571 15.5315 7.9381 15.571C8.0191 15.5974 8.1001 15.6368 8.1811 15.6895L8.38361 15.8474C8.62661 16.0975 8.77511 16.4398 8.77511 16.782C8.77511 17.1242 8.62661 17.4664 8.38361 17.7165ZM13.1087 17.7165C12.8522 17.9535 12.5012 18.0983 12.1502 18.0983C11.7991 18.0983 11.4481 17.9535 11.1916 17.7165C10.9486 17.4664 10.8001 17.1242 10.8001 16.782C10.8001 16.4398 10.9486 16.0975 11.1916 15.8474C11.7046 15.3604 12.6092 15.3604 13.1087 15.8474C13.3517 16.0975 13.5002 16.4398 13.5002 16.782C13.5002 17.1242 13.3517 17.4664 13.1087 17.7165Z" fill="#292D32"/>
</svg>
