<svg width="27" height="24" viewBox="0 0 27 24" fill="none" xmlns="http://www.w3.org/2000/svg">
<path fill-rule="evenodd" clip-rule="evenodd" d="M20.7 0C21.1968 0 21.6 0.31625 21.6 0.705888V1.41176H24.3C25.7886 1.41176 27 2.36189 27 3.52941V24H0V3.52941C0 2.36189 1.21139 1.41176 2.7 1.41176H5.39997V0.705888C5.39997 0.316238 5.80319 1.25e-05 6.3 1.25e-05C6.7968 1.25e-05 7.19999 0.316238 7.19999 0.705888V1.41176H19.8V0.705888C19.8 0.316238 20.2032 1.25e-05 20.7 1.25e-05L20.7 0ZM25.2 7.05881H1.80001V22.5882H25.2V7.05881ZM20.0637 10.0892L21.3363 11.0873L11.6991 18.6459L5.66369 13.9108L6.9363 12.9127L11.6991 16.6482L20.0637 10.0892ZM5.39999 2.82354H2.7C2.20498 2.82354 1.80001 3.13976 1.80001 3.52941V5.64706H25.2V3.52941C25.2 3.13976 24.795 2.82354 24.3 2.82354H21.6V3.52941C21.6 3.91906 21.1968 4.2353 20.7 4.2353C20.2032 4.2353 19.8 3.91906 19.8 3.52943V2.82353H7.2V3.52941C7.2 3.91906 6.79678 4.2353 6.3 4.2353C5.80321 4.2353 5.39999 3.91906 5.39999 3.52943V2.82354Z" fill="black"/>
</svg>
