<svg width="28" height="27" viewBox="0 0 28 27" fill="none" xmlns="http://www.w3.org/2000/svg">
<path d="M26.4045 8.5105L16.704 0.889061C15.2062 -0.294051 12.7845 -0.294051 11.3008 0.875304L1.60023 8.5105C0.508396 9.36345 -0.191498 11.1656 0.0464656 12.5138L1.90818 23.4644C2.24413 25.4179 4.14784 27 6.16354 27H21.8412C23.8429 27 25.7606 25.4042 26.0965 23.4644L27.9582 12.5138C28.1822 11.1656 27.4823 9.36345 26.4045 8.5105ZM14.0024 18.3193C12.0707 18.3193 10.5029 16.7785 10.5029 14.88C10.5029 12.9815 12.0707 11.4407 14.0024 11.4407C15.9341 11.4407 17.5018 12.9815 17.5018 14.88C17.5018 16.7785 15.9341 18.3193 14.0024 18.3193Z" fill="#292D32"/>
</svg>
