<svg width="39" height="31" viewBox="0 0 39 31" fill="none" xmlns="http://www.w3.org/2000/svg">
<g id="&#240;&#159;&#166;&#134; icon &#34;person outline&#34;">
<g id="Group">
<path id="Vector" d="M19.4895 14.0789C20.714 14.0789 21.9111 13.788 22.9292 13.243C23.9474 12.6981 24.741 11.9235 25.2096 11.0172C25.6782 10.1109 25.8008 9.11367 25.5619 8.15157C25.323 7.18948 24.7333 6.30573 23.8674 5.6121C23.0016 4.91847 21.8984 4.4461 20.6974 4.25473C19.4963 4.06335 18.2515 4.16157 17.1201 4.53696C15.9888 4.91236 15.0218 5.54806 14.3415 6.36368C13.6612 7.17931 13.2981 8.13822 13.2981 9.11917C13.2981 10.4346 13.9504 11.6961 15.1115 12.6262C16.2726 13.5564 17.8474 14.0789 19.4895 14.0789ZM19.4895 6.6393C20.1017 6.6393 20.7003 6.78474 21.2093 7.05723C21.7184 7.32972 22.1152 7.71703 22.3495 8.17016C22.5838 8.6233 22.6451 9.12192 22.5257 9.60297C22.4062 10.084 22.1114 10.5259 21.6785 10.8727C21.2455 11.2195 20.6939 11.4557 20.0934 11.5514C19.4929 11.6471 18.8705 11.598 18.3048 11.4103C17.7391 11.2226 17.2557 10.9047 16.9155 10.4969C16.5753 10.0891 16.3938 9.60964 16.3938 9.11917C16.3938 8.46147 16.7199 7.8307 17.3005 7.36563C17.881 6.90057 18.6684 6.6393 19.4895 6.6393Z" fill="#231F20"/>
<path id="Vector_2" d="M19.4897 16.5588C16.6161 16.5588 13.8602 17.4733 11.8283 19.101C9.79632 20.7288 8.65479 22.9364 8.65479 25.2384C8.65479 25.5672 8.81786 25.8826 9.10814 26.1152C9.39842 26.3477 9.79212 26.4783 10.2026 26.4783C10.6131 26.4783 11.0068 26.3477 11.2971 26.1152C11.5874 25.8826 11.7505 25.5672 11.7505 25.2384C11.7505 23.5941 12.5659 22.0172 14.0172 20.8546C15.4686 19.6919 17.4371 19.0387 19.4897 19.0387C21.5423 19.0387 23.5108 19.6919 24.9622 20.8546C26.4135 22.0172 27.2289 23.5941 27.2289 25.2384C27.2289 25.5672 27.392 25.8826 27.6823 26.1152C27.9726 26.3477 28.3663 26.4783 28.7768 26.4783C29.1873 26.4783 29.581 26.3477 29.8713 26.1152C30.1615 25.8826 30.3246 25.5672 30.3246 25.2384C30.3246 22.9364 29.1831 20.7288 27.1511 19.101C25.1192 17.4733 22.3633 16.5588 19.4897 16.5588Z" fill="#231F20"/>
</g>
</g>
</svg>
